# xmcd CD database file
#
# Track frame offsets:
#	150
#	19397
#	37370
#
# Disc length: 737 seconds
#
# Revision: 0
# Processed by: cddbd v1.5PL3 Copyright (c) Steve Scherf et al.
# Submitted via: CDex 1.50beta9
#
DISCID=2602df03
DTITLE=星村 麻衣 - 夏色のキャンバス
DYEAR=1900
DGENRE=
TTITLE0=星村麻衣 - 夏色のキャンバス
TTITLE1=星村麻衣 - Sunset
TTITLE2=星村麻衣 - Us
EXTD=
EXTT0=
EXTT1=
EXTT2=
PLAYORDER=
